<svg xmlns="http://www.w3.org/2000/svg" width="32" height="32" fill="none" viewBox="0 0 32 32" id="diamond">
  <path fill="#72ADF1" d="M9.23438 14.25L15.9844 30.1641L23.5156 14.25H9.23438Z"></path>
  <path fill="url(#paint0_linear_18_17750)" d="M9.23438 14.25L15.9844 30.1641L23.5156 14.25H9.23438Z"></path>
  <path fill="url(#paint1_linear_18_17750)" d="M9.23438 14.25L15.9844 30.1641L23.5156 14.25H9.23438Z"></path>
  <path fill="url(#paint2_linear_18_17750)" d="M7.54688 7.96875L2.04688 15.375H11.0781L16 7.96875H7.54688Z"></path>
  <path fill="url(#paint3_linear_18_17750)" d="M7.54688 7.96875L2.04688 15.375H11.0781L16 7.96875H7.54688Z"></path>
  <path fill="url(#paint4_linear_18_17750)" d="M7.54688 7.96875L2.04688 15.375H11.0781L16 7.96875H7.54688Z"></path>
  <path fill="url(#paint5_radial_18_17750)" d="M24.4297 7.96875L29.9297 15.375H20.8984L15.9766 7.96875H24.4297Z"></path>
  <path fill="url(#paint6_linear_18_17750)" d="M24.4297 7.96875L29.9297 15.375H20.8984L15.9766 7.96875H24.4297Z"></path>
  <path fill="url(#paint7_linear_18_17750)" d="M15.9902 30.1738L2.04688 15.375H11.0781L15.9902 30.1738Z"></path>
  <path fill="url(#paint8_linear_18_17750)" d="M15.9902 30.1738L2.04688 15.375H11.0781L15.9902 30.1738Z"></path>
  <path fill="url(#paint9_radial_18_17750)" d="M15.9844 30.1641L29.9336 15.375H20.9023L15.9844 30.1641Z"></path>
  <path fill="url(#paint10_linear_18_17750)" d="M15.9844 30.1641L29.9336 15.375H20.9023L15.9844 30.1641Z"></path>
  <path fill="url(#paint11_linear_18_17750)" d="M15.9844 30.1641L29.9336 15.375H20.9023L15.9844 30.1641Z"></path>
  <path fill="url(#paint12_linear_18_17750)" d="M11.0781 15.3749H20.8984L15.9883 7.98633L11.0781 15.3749Z"></path>
  <defs>
    <linearGradient id="paint0_linear_18_17750" x1="16.375" x2="16.375" y1="14.848" y2="16.848" gradientUnits="userSpaceOnUse">
      <stop stop-color="#72C8F9"></stop>
      <stop offset="1" stop-color="#73AEF2" stop-opacity="0"></stop>
    </linearGradient>
    <linearGradient id="paint1_linear_18_17750" x1="19.191" x2="15.947" y1="25.113" y2="24.491" gradientUnits="userSpaceOnUse">
      <stop stop-color="#73D2FF"></stop>
      <stop offset="1" stop-color="#73AEF2" stop-opacity="0"></stop>
    </linearGradient>
    <linearGradient id="paint2_linear_18_17750" x1="11.172" x2="7.234" y1="15" y2="9.875" gradientUnits="userSpaceOnUse">
      <stop offset=".33" stop-color="#2E97D8"></stop>
      <stop offset="1" stop-color="#1C82CA"></stop>
    </linearGradient>
    <linearGradient id="paint3_linear_18_17750" x1="2.484" x2="6.297" y1="16.063" y2="13.125" gradientUnits="userSpaceOnUse">
      <stop stop-color="#2E8BDB"></stop>
      <stop offset="1" stop-color="#2E8BDB" stop-opacity="0"></stop>
    </linearGradient>
    <linearGradient id="paint4_linear_18_17750" x1="13.57" x2="12.704" y1="12.471" y2="11.916" gradientUnits="userSpaceOnUse">
      <stop stop-color="#32B3EA"></stop>
      <stop offset="1" stop-color="#32B3EA" stop-opacity="0"></stop>
    </linearGradient>
    <linearGradient id="paint6_linear_18_17750" x1="19.578" x2="20.203" y1="13.594" y2="13.188" gradientUnits="userSpaceOnUse">
      <stop offset=".17" stop-color="#20D0F6"></stop>
      <stop offset="1" stop-color="#20D0F6" stop-opacity="0"></stop>
    </linearGradient>
    <linearGradient id="paint7_linear_18_17750" x1="9.019" x2="15.99" y1="15.375" y2="29.734" gradientUnits="userSpaceOnUse">
      <stop offset=".379" stop-color="#296BCC"></stop>
      <stop offset="1" stop-color="#3E7DE1"></stop>
    </linearGradient>
    <linearGradient id="paint8_linear_18_17750" x1="9.019" x2="9.019" y1="15.375" y2="15.781" gradientUnits="userSpaceOnUse">
      <stop stop-color="#2D75D2"></stop>
      <stop offset="1" stop-color="#2D75D2" stop-opacity="0"></stop>
    </linearGradient>
    <linearGradient id="paint10_linear_18_17750" x1="17.563" x2="18.063" y1="24.898" y2="25.094" gradientUnits="userSpaceOnUse">
      <stop stop-color="#368FE1"></stop>
      <stop offset="1" stop-color="#368FE1" stop-opacity="0"></stop>
    </linearGradient>
    <linearGradient id="paint11_linear_18_17750" x1="22.959" x2="22.959" y1="15.063" y2="16.094" gradientUnits="userSpaceOnUse">
      <stop stop-color="#309EE9"></stop>
      <stop offset="1" stop-color="#309EE9" stop-opacity="0"></stop>
    </linearGradient>
    <linearGradient id="paint12_linear_18_17750" x1="19.672" x2="11.078" y1="11.312" y2="17.312" gradientUnits="userSpaceOnUse">
      <stop stop-color="#6CE8FE"></stop>
      <stop offset=".642" stop-color="#68CAEA"></stop>
    </linearGradient>
    <radialGradient id="paint5_radial_18_17750" cx="0" cy="0" r="1" gradientTransform="matrix(8.25 -.82813 1.11925 11.15027 17.984 12.5)" gradientUnits="userSpaceOnUse">
      <stop stop-color="#20D5FC"></stop>
      <stop offset="1" stop-color="#20BFF7"></stop>
    </radialGradient>
    <radialGradient id="paint9_radial_18_17750" cx="0" cy="0" r="1" gradientTransform="matrix(5.72464 -10.31253 5.40695 3.00148 17.234 29.563)" gradientUnits="userSpaceOnUse">
      <stop stop-color="#42A2EC"></stop>
      <stop offset="1" stop-color="#3294E4"></stop>
    </radialGradient>
  </defs>
</svg>
