<svg xmlns="http://www.w3.org/2000/svg" xmlns:xlink="http://www.w3.org/1999/xlink" viewBox="0 0 512 512" id="gold">
  <defs>
    <linearGradient id="a" x1="185.05" x2="88.19" y1="315.29" y2="417.29" gradientUnits="userSpaceOnUse">
      <stop offset=".29" stop-color="#ffcd52"></stop>
      <stop offset="1" stop-color="#ffbc00" stop-opacity="0"></stop>
    </linearGradient>
    <linearGradient xlink:href="#a" id="b" x1="149.85" x2="52.99" y1="281.87" y2="383.87"></linearGradient>
    <linearGradient xlink:href="#a" id="c" x1="392.69" x2="295.83" y1="315.29" y2="417.29"></linearGradient>
    <linearGradient xlink:href="#a" id="d" x1="357.49" x2="260.64" y1="281.87" y2="383.87"></linearGradient>
    <linearGradient xlink:href="#a" id="e" x1="288.87" x2="192.01" y1="205.23" y2="307.23"></linearGradient>
    <linearGradient xlink:href="#a" id="f" x1="253.67" x2="156.81" y1="171.8" y2="273.8"></linearGradient>
  </defs>
  <path fill="#fff" d="M480,375l-27.29-77.68a35.68,35.68,0,0,0-33.62-23.82H378a35.9,35.9,0,0,0-1.86-8.56l-4.51-12.85a19.16,19.16,0,0,0,2.44-.49l16.68-4.49,16.7,4.49A20,20,0,0,0,432,227.05l-4.49-16.68L432,193.68a20,20,0,0,0-24.5-24.51l-16.7,4.49-16.68-4.49a20,20,0,0,0-25.16,18.23l-.06-.18a35.68,35.68,0,0,0-33.62-23.82h-27.9l9.59-5.53a20,20,0,0,0,0-34.66l-15-8.63-8.63-15a20,20,0,0,0-34.66,0l-8.63,15-15,8.63a20,20,0,0,0,0,34.66l9.59,5.53h-27.9a35.69,35.69,0,0,0-33.62,23.81l-7.44,21.2c-.3-.34-.62-.68-.94-1a20,20,0,0,0-19.33-5.17l-16.69,4.48-16.69-4.48a20,20,0,0,0-24.51,24.5L82,243.43l-4.49,16.69a20,20,0,0,0,2.39,15.82,35.67,35.67,0,0,0-20.61,21.34L32,375A35.62,35.62,0,0,0,65.64,422.4H238.71A35.62,35.62,0,0,0,256,417.9a35.62,35.62,0,0,0,17.29,4.5H446.36A35.62,35.62,0,0,0,480,375Z"></path>
  <path fill="#ffbc00" d="M238.71 402.4H65.64A15.63 15.63 0 0150.9 381.59l27.29-77.68a15.63 15.63 0 0114.75-10.45H211.42a15.63 15.63 0 0114.75 10.45l27.29 77.68A15.63 15.63 0 01238.71 402.4zM342.54 292.34H169.46a15.63 15.63 0 01-14.74-20.81L182 193.84a15.62 15.62 0 0114.75-10.44H315.24A15.62 15.62 0 01330 193.84l27.29 77.69A15.63 15.63 0 01342.54 292.34z"></path>
  <path fill="#ffa300" d="M357.28,271.53,330,193.84a15.62,15.62,0,0,0-14.75-10.44h-3.08l7.8,22.2a47.76,47.76,0,0,1-45.06,63.6H155.54l-.82,2.33a15.63,15.63,0,0,0,14.74,20.81H342.54A15.63,15.63,0,0,0,357.28,271.53Z"></path>
  <path fill="#ffbc00" d="M446.36,402.4H273.29a15.63,15.63,0,0,1-14.75-20.81l27.29-77.68a15.63,15.63,0,0,1,14.75-10.45H419.06a15.63,15.63,0,0,1,14.75,10.45l27.29,77.68A15.63,15.63,0,0,1,446.36,402.4Z"></path>
  <path fill="#ffa300" d="M461.1 381.59l-27.29-77.68a15.63 15.63 0 00-14.75-10.45H416l7.81 22.2a47.77 47.77 0 01-45.07 63.6H259.36l-.82 2.33a15.63 15.63 0 0014.75 20.81H446.36A15.63 15.63 0 00461.1 381.59zM253.46 381.59l-27.29-77.68a15.63 15.63 0 00-14.75-10.45h-3.08l7.8 22.2a47.76 47.76 0 01-45.06 63.6H51.72l-.82 2.33A15.62 15.62 0 0065.64 402.4H238.71A15.63 15.63 0 00253.46 381.59z"></path>
  <path fill="url(#a)" d="M119,402.4,222.88,298.47a15.64,15.64,0,0,0-11.46-5h-22L80.46,402.4Z"></path>
  <path fill="url(#b)" d="M121.12,293.46,60.6,354l-9.7,27.61a15.58,15.58,0,0,0,4,16.56L159.62,293.46Z"></path>
  <path fill="url(#c)" d="M326.6,402.4,430.52,298.47a15.62,15.62,0,0,0-11.46-5H397L288.1,402.4Z"></path>
  <path fill="url(#d)" d="M328.76,293.46,268.24,354l-9.7,27.61a15.6,15.6,0,0,0,4,16.56L367.26,293.46Z"></path>
  <path fill="url(#e)" d="M222.78,292.34,326.7,188.41a15.6,15.6,0,0,0-11.46-5h-22L184.28,292.34Z"></path>
  <path fill="url(#f)" d="M224.94,183.4l-60.52,60.52-9.7,27.61a15.58,15.58,0,0,0,4,16.56L263.44,183.4Z"></path>
  <polygon fill="#ffbc00" points="96.86 221.55 118.74 227.43 140.62 221.55 134.74 243.43 140.62 265.31 118.74 259.43 96.86 265.31 102.74 243.43 96.86 221.55"></polygon>
  <polygon fill="#ffbc00" points="256 109.6 267.31 129.23 286.94 140.54 267.31 151.86 256 171.49 244.69 151.86 225.06 140.54 244.69 129.23 256 109.6"></polygon>
  <polygon fill="#ffbc00" points="412.64 188.49 406.76 210.37 412.64 232.25 390.76 226.37 368.88 232.25 374.76 210.37 368.88 188.49 390.76 194.37 412.64 188.49"></polygon>
</svg>
